<svg xmlns="http://www.w3.org/2000/svg" viewBox="0 0 100 100" width="100" height="100">
  <!-- Water base -->
  <path d="M0,65 Q25,55 50,65 T100,65 L100,100 L0,100 Z" fill="#75E6DA" />
  
  <!-- Kelp stems -->
  <path d="M20,65 C18,50 22,40 20,30 C18,20 15,15 18,5" fill="none" stroke="#2EC4B6" stroke-width="3" stroke-linecap="round" />
  <path d="M35,65 C37,55 33,45 35,35 C37,25 40,20 37,10" fill="none" stroke="#2EC4B6" stroke-width="3" stroke-linecap="round" />
  <path d="M50,65 C48,50 52,40 50,30 C48,20 45,15 48,5" fill="none" stroke="#2EC4B6" stroke-width="3" stroke-linecap="round" />
  <path d="M65,65 C67,55 63,45 65,35 C67,25 70,20 67,10" fill="none" stroke="#2EC4B6" stroke-width="3" stroke-linecap="round" />
  <path d="M80,65 C78,50 82,40 80,30 C78,20 75,15 78,5" fill="none" stroke="#2EC4B6" stroke-width="3" stroke-linecap="round" />
  
  <!-- Oil rig structure simplified -->
  <rect x="45" y="10" width="10" height="55" fill="#05445E"/>
  <rect x="40" y="20" width="20" height="5" fill="#05445E"/>
  <rect x="35" y="35" width="30" height="5" fill="#05445E"/>
  <rect x="30" y="50" width="40" height="5" fill="#05445E"/>
  
  <!-- Circle outline to complete the logo -->
  <circle cx="50" cy="50" r="48" fill="none" stroke="#0C6291" stroke-width="4"/>
</svg>
