<svg xmlns="http://www.w3.org/2000/svg" viewBox="0 0 500 600" width="500" height="600">
  <!-- Sea background -->
  <rect x="0" y="200" width="500" height="400" fill="#189AB4"/>
  
  <!-- Underwater gradient -->
  <defs>
    <linearGradient id="oceanGradient" x1="0%" y1="0%" x2="0%" y2="100%">
      <stop offset="0%" style="stop-color:#189AB4;stop-opacity:1" />
      <stop offset="100%" style="stop-color:#05445E;stop-opacity:1" />
    </linearGradient>
  </defs>
  <rect x="0" y="200" width="500" height="400" fill="url(#oceanGradient)"/>
  
  <!-- Oil Rig Structure -->
  <g id="oilRig">
    <!-- Main platform -->
    <rect x="150" y="180" width="200" height="20" fill="#333333"/>
    
    <!-- Support columns -->
    <rect x="160" y="200" width="15" height="400" fill="#444444"/>
    <rect x="325" y="200" width="15" height="400" fill="#444444"/>
    
    <!-- Cross supports -->
    <line x1="160" y1="250" x2="340" y2="350" stroke="#555555" stroke-width="8"/>
    <line x1="340" y1="250" x2="160" y2="350" stroke="#555555" stroke-width="8"/>
    <line x1="160" y1="400" x2="340" y2="500" stroke="#555555" stroke-width="8"/>
    <line x1="340" y1="400" x2="160" y2="500" stroke="#555555" stroke-width="8"/>
    
    <!-- Platform details -->
    <rect x="200" y="150" width="100" height="30" fill="#333333"/>
    <rect x="230" y="100" width="40" height="50" fill="#444444"/>
    <rect x="240" y="50" width="20" height="50" fill="#555555"/>
    
    <!-- Small platform details -->
    <rect x="175" y="170" width="150" height="10" fill="#666666"/>
  </g>
  
  <!-- Kelp Growing from the Platform -->
  <g id="kelp">
    <!-- Kelp Strand 1 -->
    <path d="M170,300 C180,320 160,340 170,360 C180,380 160,400 170,420 C180,440 160,460 170,480 C180,500 170,520 170,540" fill="none" stroke="#2EC4B6" stroke-width="5"/>
    <path d="M170,340 C180,330 190,335 195,340" fill="none" stroke="#2EC4B6" stroke-width="3"/>
    <path d="M170,380 C160,370 150,375 145,380" fill="none" stroke="#2EC4B6" stroke-width="3"/>
    <path d="M170,420 C180,410 190,415 195,420" fill="none" stroke="#2EC4B6" stroke-width="3"/>
    <path d="M170,460 C160,450 150,455 145,460" fill="none" stroke="#2EC4B6" stroke-width="3"/>
    <path d="M170,500 C180,490 190,495 195,500" fill="none" stroke="#2EC4B6" stroke-width="3"/>
    
    <!-- Kelp Strand 2 -->
    <path d="M220,280 C210,300 230,320 220,340 C210,360 230,380 220,400 C210,420 230,440 220,460 C210,480 220,500 220,520" fill="none" stroke="#2EC4B6" stroke-width="5"/>
    <path d="M220,320 C210,310 200,315 195,320" fill="none" stroke="#2EC4B6" stroke-width="3"/>
    <path d="M220,360 C230,350 240,355 245,360" fill="none" stroke="#2EC4B6" stroke-width="3"/>
    <path d="M220,400 C210,390 200,395 195,400" fill="none" stroke="#2EC4B6" stroke-width="3"/>
    <path d="M220,440 C230,430 240,435 245,440" fill="none" stroke="#2EC4B6" stroke-width="3"/>
    <path d="M220,480 C210,470 200,475 195,480" fill="none" stroke="#2EC4B6" stroke-width="3"/>
    
    <!-- Kelp Strand 3 -->
    <path d="M280,290 C290,310 270,330 280,350 C290,370 270,390 280,410 C290,430 270,450 280,470 C290,490 280,510 280,530" fill="none" stroke="#2EC4B6" stroke-width="5"/>
    <path d="M280,330 C290,320 300,325 305,330" fill="none" stroke="#2EC4B6" stroke-width="3"/>
    <path d="M280,370 C270,360 260,365 255,370" fill="none" stroke="#2EC4B6" stroke-width="3"/>
    <path d="M280,410 C290,400 300,405 305,410" fill="none" stroke="#2EC4B6" stroke-width="3"/>
    <path d="M280,450 C270,440 260,445 255,450" fill="none" stroke="#2EC4B6" stroke-width="3"/>
    <path d="M280,490 C290,480 300,485 305,490" fill="none" stroke="#2EC4B6" stroke-width="3"/>
    
    <!-- Kelp Strand 4 -->
    <path d="M330,310 C320,330 340,350 330,370 C320,390 340,410 330,430 C320,450 340,470 330,490 C320,510 330,530 330,550" fill="none" stroke="#2EC4B6" stroke-width="5"/>
    <path d="M330,350 C320,340 310,345 305,350" fill="none" stroke="#2EC4B6" stroke-width="3"/>
    <path d="M330,390 C340,380 350,385 355,390" fill="none" stroke="#2EC4B6" stroke-width="3"/>
    <path d="M330,430 C320,420 310,425 305,430" fill="none" stroke="#2EC4B6" stroke-width="3"/>
    <path d="M330,470 C340,460 350,465 355,470" fill="none" stroke="#2EC4B6" stroke-width="3"/>
    <path d="M330,510 C320,500 310,505 305,510" fill="none" stroke="#2EC4B6" stroke-width="3"/>
  </g>
  
  <!-- Net visualization -->
  <g id="net" opacity="0.7">
    <!-- Horizontal lines of net -->
    <line x1="150" y1="350" x2="350" y2="350" stroke="#75E6DA" stroke-width="1" stroke-dasharray="5,5"/>
    <line x1="150" y1="400" x2="350" y2="400" stroke="#75E6DA" stroke-width="1" stroke-dasharray="5,5"/>
    <line x1="150" y1="450" x2="350" y2="450" stroke="#75E6DA" stroke-width="1" stroke-dasharray="5,5"/>
    <line x1="150" y1="500" x2="350" y2="500" stroke="#75E6DA" stroke-width="1" stroke-dasharray="5,5"/>
    <line x1="150" y1="550" x2="350" y2="550" stroke="#75E6DA" stroke-width="1" stroke-dasharray="5,5"/>
    
    <!-- Vertical lines of net -->
    <line x1="150" y1="350" x2="150" y2="550" stroke="#75E6DA" stroke-width="1" stroke-dasharray="5,5"/>
    <line x1="200" y1="350" x2="200" y2="550" stroke="#75E6DA" stroke-width="1" stroke-dasharray="5,5"/>
    <line x1="250" y1="350" x2="250" y2="550" stroke="#75E6DA" stroke-width="1" stroke-dasharray="5,5"/>
    <line x1="300" y1="350" x2="300" y2="550" stroke="#75E6DA" stroke-width="1" stroke-dasharray="5,5"/>
    <line x1="350" y1="350" x2="350" y2="550" stroke="#75E6DA" stroke-width="1" stroke-dasharray="5,5"/>
  </g>
  
  <!-- Sky gradient -->
  <defs>
    <linearGradient id="skyGradient" x1="0%" y1="0%" x2="0%" y2="100%">
      <stop offset="0%" style="stop-color:#B3E0F2;stop-opacity:1" />
      <stop offset="100%" style="stop-color:#75E6DA;stop-opacity:1" />
    </linearGradient>
  </defs>
  <rect x="0" y="0" width="500" height="200" fill="url(#skyGradient)" opacity="0.7"/>
  
  <!-- Sun -->
  <circle cx="400" cy="50" r="30" fill="#FFD700" opacity="0.8"/>
  
  <!-- Equipment at the top of the platform -->
  <rect x="230" y="70" width="40" height="20" fill="#333333"/>
  <circle cx="250" cy="60" r="10" fill="#666666"/>
  
  <!-- Wind Turbine -->
  <g id="windTurbine">
    <rect x="250" y="40" width="6" height="30" fill="#555555"/>
    <circle cx="253" cy="40" r="15" fill="none" stroke="#555555" stroke-width="2"/>
    <!-- Turbine blades -->
    <line x1="253" y1="40" x2="268" y2="25" stroke="#555555" stroke-width="3" stroke-linecap="round"/>
    <line x1="253" y1="40" x2="238" y2="25" stroke="#555555" stroke-width="3" stroke-linecap="round"/>
    <line x1="253" y1="40" x2="253" y2="20" stroke="#555555" stroke-width="3" stroke-linecap="round"/>
  </g>
  
  <!-- Underwater soil/bottom -->
  <path d="M0,600 L500,600 L500,580 Q400,570 300,590 Q200,610 100,580 L0,590 Z" fill="#D2B48C"/>
</svg>
