<svg xmlns="http://www.w3.org/2000/svg" viewBox="0 0 1200 300">
  <path
    fill="#75E6DA"
    fill-opacity="0.3"
    d="M0,192L48,176C96,160,192,128,288,138.7C384,149,480,203,576,224C672,245,768,235,864,213.3C960,192,1056,160,1152,149.3C1248,139,1344,149,1392,154.7L1440,160L1440,320L1392,320C1344,320,1248,320,1152,320C1056,320,960,320,864,320C768,320,672,320,576,320C480,320,384,320,288,320C192,320,96,320,48,320L0,320Z"
  ></path>
  <path
    fill="#189AB4"
    fill-opacity="0.5"
    d="M0,256L48,261.3C96,267,192,277,288,245.3C384,213,480,139,576,128C672,117,768,171,864,197.3C960,224,1056,224,1152,213.3C1248,203,1344,181,1392,170.7L1440,160L1440,320L1392,320C1344,320,1248,320,1152,320C1056,320,960,320,864,320C768,320,672,320,576,320C480,320,384,320,288,320C192,320,96,320,48,320L0,320Z"
  ></path>
  <path
    fill="#0C6291"
    fill-opacity="0.7"
    d="M0,160L48,176C96,192,192,224,288,213.3C384,203,480,149,576,133.3C672,117,768,139,864,165.3C960,192,1056,224,1152,213.3C1248,203,1344,149,1392,122.7L1440,96L1440,320L1392,320C1344,320,1248,320,1152,320C1056,320,960,320,864,320C768,320,672,320,576,320C480,320,384,320,288,320C192,320,96,320,48,320L0,320Z"
  ></path>
</svg>
